<svg width="1155" height="997" viewBox="0 0 1155 997" fill="none" xmlns="http://www.w3.org/2000/svg">
<path d="M489.581 945.669L500.667 947.153C500.204 951.611 500.588 955.449 501.819 958.668C503.098 961.856 505.523 964.762 509.093 967.384C512.672 969.967 516.937 971.812 521.888 972.92C526.285 973.903 530.313 974.119 533.974 973.57C537.634 973.02 540.529 971.801 542.66 969.915C544.839 967.997 546.231 965.696 546.835 963.012C547.448 960.288 547.19 957.743 546.058 955.375C544.936 952.968 542.708 950.667 539.375 948.47C537.243 947.04 532.389 944.482 524.814 940.798C517.248 937.075 512.052 934.006 509.226 931.591C505.556 928.49 503.051 925.111 501.711 921.453C500.419 917.764 500.223 913.926 501.12 909.939C502.107 905.558 504.274 901.751 507.623 898.52C510.981 895.249 515.278 893.162 520.515 892.26C525.753 891.358 531.303 891.562 537.165 892.873C543.622 894.317 549.07 896.634 553.511 899.825C558 902.984 561.118 906.874 562.866 911.494C564.613 916.114 565.012 920.992 564.064 926.128L552.826 924.486C553.467 918.866 552.38 914.27 549.565 910.697C546.79 907.132 542.055 904.602 535.361 903.105C528.389 901.546 523.01 901.691 519.224 903.539C515.486 905.357 513.213 908.062 512.404 911.654C511.702 914.772 512.253 917.591 514.058 920.109C515.823 922.618 521.139 925.984 530.008 930.205C538.924 934.397 544.948 937.672 548.078 940.03C552.624 943.493 555.7 947.29 557.308 951.423C558.924 955.516 559.208 959.891 558.159 964.549C557.119 969.167 554.81 973.233 551.232 976.745C547.663 980.217 543.125 982.54 537.618 983.713C532.16 984.856 526.322 984.732 520.103 983.342C512.221 981.579 505.863 978.955 501.031 975.47C496.239 971.994 492.833 967.625 490.814 962.364C488.844 957.072 488.433 951.508 489.581 945.669Z" fill="white" fill-opacity="0.03"/>
<path d="M594.341 993.64L599.268 915.33L569.914 913.496L570.573 903.019L641.192 907.43L640.533 917.908L611.058 916.067L606.132 994.377L594.341 993.64Z" fill="white" fill-opacity="0.03"/>
<path d="M651.311 997L647.868 908.104L712.367 905.624L712.774 916.114L660.079 918.141L661.134 945.367L710.481 943.469L710.885 953.899L661.537 955.797L662.709 986.056L717.473 983.949L717.879 994.44L651.311 997Z" fill="white" fill-opacity="0.03"/>
<path d="M739.108 990L717.014 903.806L728.46 900.893L739.417 943.637L771.411 889.959L786.928 886.009L759.596 930.17L810.615 971.797L795.511 975.642L753.531 939.856L742.898 957.219L750.554 987.087L739.108 990Z" fill="white" fill-opacity="0.03"/>
<path d="M821.886 967.97L787.343 885.938L798.236 881.382L828.703 953.734L869.243 936.78L873.319 946.461L821.886 967.97Z" fill="white" fill-opacity="0.03"/>
<path d="M864.499 903.282C855.651 891.437 851.921 879.805 853.309 868.385C854.674 856.933 860.403 847.462 870.497 839.973C877.108 835.069 884.242 832.222 891.902 831.432C899.561 830.642 906.883 832.043 913.869 835.636C920.863 839.172 927.027 844.51 932.36 851.649C937.766 858.885 941.137 866.446 942.473 874.332C943.809 882.218 942.894 889.63 939.727 896.569C936.536 903.476 931.831 909.236 925.611 913.85C918.871 918.851 911.635 921.698 903.903 922.391C896.171 923.084 888.84 921.638 881.911 918.053C874.982 914.469 869.178 909.545 864.499 903.282ZM874.377 896.18C880.801 904.78 888.18 909.846 896.513 911.381C904.854 912.859 912.525 911.001 919.526 905.807C926.657 900.516 930.652 893.669 931.51 885.265C932.401 876.837 929.416 868.031 922.555 858.848C918.216 853.039 913.441 848.714 908.231 845.872C903.028 842.973 897.638 841.752 892.058 842.21C886.487 842.611 881.34 844.563 876.619 848.066C869.911 853.043 865.852 859.635 864.443 867.842C863.042 875.993 866.353 885.439 874.377 896.18Z" fill="white" fill-opacity="0.03"/>
<path d="M1025.03 813.001C1025.52 818.363 1025.07 823.291 1023.66 827.783C1022.23 832.247 1019.83 836.291 1016.47 839.914C1010.27 846.597 1003.08 849.81 994.913 849.555C988.268 849.327 982.666 847.111 978.106 842.908C974.053 839.172 971.601 834.515 970.751 828.937C969.899 823.302 970.634 816.76 972.957 809.313C966.83 809.121 962.254 808.541 959.229 807.57C956.203 806.6 953.707 805.208 951.74 803.395C947.806 799.769 945.813 795.094 945.762 789.371C945.708 783.59 947.845 778.368 952.172 773.705C956.307 769.25 961.055 766.876 966.415 766.582C971.803 766.258 976.42 767.868 980.264 771.411C986.493 777.152 987.995 786.169 984.77 798.462L1010.62 800.549C1009.24 796.795 1007.16 792.954 1004.39 789.025L1013.91 782.342C1018.31 789.042 1021.23 795.313 1022.67 801.154C1029.44 801.836 1035.95 801.526 1042.19 800.224L1043.58 811.507C1038.49 812.821 1032.31 813.319 1025.03 813.001ZM975.739 797.825C976.908 792.455 977.186 788.55 976.573 786.112C975.988 783.644 974.757 781.545 972.88 779.814C970.645 777.754 968.165 776.791 965.441 776.926C962.715 777.003 960.374 778.096 958.416 780.205C956.404 782.373 955.423 784.83 955.473 787.576C955.551 790.293 956.603 792.585 958.629 794.453C959.642 795.387 960.95 796.124 962.551 796.663C964.15 797.144 966.057 797.442 968.274 797.557L975.739 797.825ZM1014.01 812.184L982.077 810.032C980.645 816.758 980.344 821.908 981.173 825.483C981.973 829.031 983.46 831.807 985.636 833.812C988.288 836.257 992.024 837.744 996.842 838.272C1001.66 838.801 1005.86 837.135 1009.44 833.274C1011.68 830.868 1013.23 827.701 1014.11 823.774C1014.99 819.789 1014.96 815.926 1014.01 812.184Z" fill="white" fill-opacity="0.03"/>
<path d="M1078.64 763.03L1003.23 715.427L1009.55 705.481L1084.96 753.085L1078.64 763.03Z" fill="white" fill-opacity="0.03"/>
<path d="M1096.29 732.616L1014.69 696.538L1027.16 668.526C1029.98 662.202 1032.51 657.549 1034.77 654.565C1037.92 650.381 1041.64 647.268 1045.93 645.223C1051.47 642.542 1057.56 641.402 1064.17 641.804C1070.77 642.153 1077.7 643.936 1084.97 647.152C1091.17 649.892 1096.34 653.041 1100.49 656.6C1104.63 660.158 1107.78 663.763 1109.93 667.413C1112.04 671.047 1113.41 674.616 1114.02 678.119C1114.62 681.569 1114.53 685.404 1113.76 689.623C1113.01 693.805 1111.54 698.355 1109.35 703.273L1096.29 732.616ZM1091.45 717.598L1099.18 700.236C1101.57 694.874 1102.93 690.455 1103.28 686.98C1103.65 683.468 1103.32 680.404 1102.31 677.788C1100.89 674.104 1098.34 670.608 1094.66 667.3C1090.96 663.938 1086.03 660.895 1079.87 658.172C1071.33 654.398 1064.16 652.907 1058.34 653.7C1052.51 654.439 1047.92 656.461 1044.58 659.765C1042.19 662.157 1039.56 666.552 1036.72 672.95L1029.11 690.034L1091.45 717.598Z" fill="white" fill-opacity="0.03"/>
<path d="M1132.55 645.999L1045.78 625.112L1060.93 562.586L1071.17 565.05L1058.79 616.133L1085.37 622.531L1096.96 574.692L1107.14 577.142L1095.55 624.981L1125.09 632.091L1137.95 579.002L1148.19 581.467L1132.55 645.999Z" fill="white" fill-opacity="0.03"/>
<path d="M1152.59 572.279L1064.35 535.56L1064.71 522.882L1155 489.056L1154.61 502.461L1127.29 512.056L1126.21 549.239L1152.95 559.783L1152.59 572.279ZM1116.69 545.565L1117.56 515.418L1092.58 523.988C1084.99 526.602 1078.76 528.528 1073.89 529.763C1079.58 531.06 1085.22 532.821 1090.8 535.046L1116.69 545.565Z" fill="white" fill-opacity="0.03"/>
<path d="M194.531 556.866C236.504 558.064 216.119 575.989 201.726 577.181C182.543 579.574 130.981 591.524 108.197 603.474C68.6257 622.594 16.5834 646.733 29.0544 685.929C41.5253 725.125 118.989 727.754 156.162 724.169C217.318 724.169 334.432 693.881 393.59 663.224C423.569 647.689 502.711 605.864 539.885 556.866C573.46 512.61 560.27 500.304 548.279 494.729C537.726 481.345 433.162 473.219 382.798 464.854C345.994 458.742 277.754 456.728 241.301 419.445C204.847 382.161 242.1 324.243 265.283 299.945C301.737 256.925 465.538 178.053 597.443 152.959C608.235 151.765 695.772 125.475 770.118 143.399C830.314 157.912 807.691 214.302 789.304 238.999C777.792 262.899 684.98 341.769 620.226 357.303C598.242 360.49 555.713 358.737 561.469 326.234C567.225 293.73 632.617 261.704 664.594 249.754C678.984 243.779 684.98 253.339 680.183 255.729C664.594 263.496 622.225 287.595 598.642 304.724C593.446 308.707 585.931 317.391 597.443 320.259C611.833 323.844 693.373 291.579 754.529 238.999C803.454 196.935 770.917 180.841 748.534 178.053C615.19 160.845 375.603 253.338 276.076 328.623C223.314 372.838 268.881 399.128 300.058 406.298C363.612 425.418 484.725 418.248 543.482 449.318C604.878 479.909 590.248 546.112 568.661 571.207C507.504 668.002 322.842 775.552 127.38 767.187C-2.99745 761.607 -8.52193 696.682 5.06823 659.637C12.7427 617.573 133.375 556.866 194.531 556.866Z" fill="white" fill-opacity="0.03"/>
<path d="M652.603 9.55999C904.36 9.55999 1110.47 204.312 1127.52 450.886L1137.12 450.64C1119.93 198.898 909.576 0 652.603 0C513.198 0 387.511 58.5345 298.942 152.286L305.324 159.478C392.177 67.2047 515.635 9.55999 652.603 9.55999Z" fill="white" fill-opacity="0.03"/>
<path d="M302.735 805.699L294.504 810.902C336.895 856.99 388.126 894.869 445.522 921.872L449.805 913.313C393.987 887.083 344.11 850.361 302.735 805.699Z" fill="white" fill-opacity="0.03"/>
</svg>
