<svg width="93" height="80" viewBox="0 0 93 80" fill="none" xmlns="http://www.w3.org/2000/svg">
<path d="M39.4208 75.8812L40.3134 76.0003C40.2762 76.3579 40.3071 76.6659 40.4062 76.9242C40.5092 77.18 40.7044 77.4132 40.9919 77.6236C41.2801 77.8309 41.6235 77.9789 42.0222 78.0678C42.3762 78.1467 42.7006 78.164 42.9953 78.1199C43.29 78.0758 43.5231 77.9781 43.6947 77.8266C43.8702 77.6728 43.9822 77.4882 44.0309 77.2728C44.0803 77.0542 44.0594 76.85 43.9683 76.66C43.878 76.4669 43.6986 76.2822 43.4302 76.1059C43.2585 75.9911 42.8677 75.7859 42.2578 75.4903C41.6486 75.1916 41.2302 74.9453 41.0026 74.7515C40.7071 74.5027 40.5054 74.2315 40.3975 73.938C40.2935 73.642 40.2777 73.3341 40.3499 73.0142C40.4294 72.6626 40.6039 72.3572 40.8736 72.0979C41.1439 71.8354 41.4899 71.668 41.9116 71.5956C42.3333 71.5232 42.7802 71.5396 43.2522 71.6448C43.7721 71.7607 44.2108 71.9466 44.5684 72.2026C44.9299 72.4561 45.181 72.7682 45.3216 73.1389C45.4623 73.5096 45.4945 73.9011 45.4181 74.3132L44.5133 74.1814C44.5649 73.7305 44.4774 73.3617 44.2507 73.075C44.0272 72.789 43.646 72.5859 43.107 72.4658C42.5456 72.3407 42.1125 72.3523 41.8077 72.5006C41.5067 72.6465 41.3237 72.8635 41.2585 73.1518C41.202 73.402 41.2464 73.6281 41.3917 73.8302C41.5338 74.0315 41.9619 74.3016 42.6759 74.6404C43.3939 74.9767 43.8789 75.2394 44.131 75.4287C44.497 75.7065 44.7447 76.0113 44.8741 76.3428C45.0043 76.6713 45.0271 77.0224 44.9427 77.3961C44.859 77.7667 44.673 78.0929 44.3849 78.3747C44.0975 78.6533 43.7321 78.8397 43.2888 78.9339C42.8493 79.0256 42.3792 79.0156 41.8784 78.9041C41.2437 78.7626 40.7319 78.5521 40.3428 78.2724C39.9569 77.9935 39.6827 77.6429 39.5201 77.2208C39.3614 76.7962 39.3283 76.3497 39.4208 75.8812Z" fill="white" fill-opacity="0.8"/>
<path d="M47.8561 79.7304L48.2527 73.4467L45.8891 73.2996L45.9422 72.4589L51.6285 72.8129L51.5754 73.6536L49.202 73.5058L48.8054 79.7895L47.8561 79.7304Z" fill="white" fill-opacity="0.8"/>
<path d="M52.4432 80L52.166 72.8669L57.3595 72.6679L57.3922 73.5096L53.1492 73.6723L53.2341 75.8569L57.2076 75.7047L57.2401 76.5416L53.2667 76.6938L53.361 79.1218L57.7705 78.9528L57.8032 79.7946L52.4432 80Z" fill="white" fill-opacity="0.8"/>
<path d="M59.5126 79.4384L57.7336 72.5221L58.6552 72.2883L59.5374 75.7181L62.1136 71.4109L63.363 71.094L61.1623 74.6375L65.2703 77.9777L64.0542 78.2862L60.6739 75.4147L59.8178 76.8079L60.4342 79.2046L59.5126 79.4384Z" fill="white" fill-opacity="0.8"/>
<path d="M66.1778 77.6706L63.3964 71.0883L64.2735 70.7228L66.7267 76.5283L69.991 75.1679L70.3192 75.9447L66.1778 77.6706Z" fill="white" fill-opacity="0.8"/>
<path d="M69.609 72.48C68.8966 71.5296 68.5962 70.5962 68.708 69.6799C68.8179 68.7609 69.2792 68.001 70.092 67.4001C70.6242 67.0065 71.1987 66.7781 71.8154 66.7147C72.4322 66.6513 73.0218 66.7637 73.5843 67.052C74.1474 67.3358 74.6437 67.7641 75.0732 68.3369C75.5085 68.9176 75.7799 69.5243 75.8875 70.157C75.995 70.7898 75.9213 71.3845 75.6663 71.9413C75.4094 72.4955 75.0305 72.9578 74.5297 73.328C73.987 73.7293 73.4044 73.9577 72.7818 74.0133C72.1592 74.0689 71.569 73.9529 71.011 73.6652C70.4531 73.3776 69.9858 72.9825 69.609 72.48ZM70.4044 71.9102C70.9217 72.6002 71.5158 73.0067 72.1868 73.1299C72.8584 73.2484 73.4761 73.0993 74.0398 72.6826C74.614 72.258 74.9356 71.7086 75.0047 71.0343C75.0764 70.358 74.8361 69.6515 74.2837 68.9146C73.9343 68.4485 73.5498 68.1014 73.1302 67.8734C72.7114 67.6407 72.2773 67.5428 71.828 67.5795C71.3795 67.6117 70.9651 67.7683 70.5849 68.0494C70.0448 68.4488 69.718 68.9777 69.6045 69.6363C69.4917 70.2903 69.7583 71.0483 70.4044 71.9102Z" fill="white" fill-opacity="0.8"/>
<path d="M82.5345 65.2358C82.5745 65.6661 82.538 66.0614 82.4249 66.4219C82.3095 66.7801 82.1164 67.1046 81.8456 67.3953C81.3462 67.9315 80.7676 68.1894 80.1099 68.1689C79.5749 68.1506 79.1238 67.9728 78.7566 67.6356C78.4303 67.3358 78.2328 66.9621 78.1644 66.5145C78.0957 66.0623 78.1549 65.5374 78.342 64.9398C77.8487 64.9245 77.4802 64.8779 77.2366 64.8C76.993 64.7222 76.792 64.6105 76.6336 64.465C76.3168 64.1741 76.1564 63.7989 76.1522 63.3397C76.1479 62.8758 76.32 62.4568 76.6684 62.0827C77.0014 61.7252 77.3836 61.5347 77.8153 61.5111C78.2491 61.4851 78.6208 61.6143 78.9304 61.8986C79.4319 62.3593 79.5528 63.0828 79.2932 64.0691L81.3746 64.2366C81.2633 63.9354 81.0962 63.6272 80.8733 63.3119L81.6399 62.7757C81.9941 63.3133 82.229 63.8165 82.3445 64.2852C82.8903 64.3399 83.4143 64.315 83.9168 64.2105L84.0287 65.1159C83.6188 65.2213 83.1207 65.2613 82.5345 65.2358ZM78.566 64.018C78.6601 63.5871 78.6825 63.2738 78.6332 63.0782C78.5861 62.8802 78.4869 62.7117 78.3358 62.5729C78.1558 62.4075 77.9561 62.3303 77.7368 62.3411C77.5173 62.3473 77.3288 62.435 77.1712 62.6042C77.0092 62.7781 76.9302 62.9753 76.9342 63.1957C76.9404 63.4137 77.0251 63.5976 77.1883 63.7475C77.2699 63.8224 77.3752 63.8815 77.5041 63.9248C77.6328 63.9634 77.7864 63.9874 77.9649 63.9965L78.566 64.018ZM81.6472 65.1702L79.0763 64.9975C78.961 65.5372 78.9368 65.9505 79.0036 66.2374C79.0679 66.522 79.1877 66.7448 79.3629 66.9057C79.5765 67.1019 79.8772 67.2212 80.2652 67.2636C80.6531 67.306 80.9914 67.1723 81.2799 66.8625C81.4597 66.6695 81.585 66.4154 81.6559 66.1002C81.7267 65.7805 81.7237 65.4705 81.6472 65.1702Z" fill="white" fill-opacity="0.8"/>
<path d="M86.8517 61.2261L80.7794 57.4063L81.2884 56.6083L87.3607 60.4281L86.8517 61.2261Z" fill="white" fill-opacity="0.8"/>
<path d="M88.2725 58.7857L81.7022 55.8907L82.7064 53.643C82.9331 53.1356 83.1374 52.7622 83.3195 52.5228C83.5732 52.1871 83.8725 51.9372 84.2176 51.7732C84.6642 51.558 85.1538 51.4666 85.6865 51.4988C86.2176 51.5269 86.7759 51.6699 87.3615 51.9279C87.8605 52.1478 88.2768 52.4005 88.6106 52.686C88.9443 52.9716 89.1977 53.2608 89.3708 53.5537C89.541 53.8453 89.6508 54.1316 89.7005 54.4128C89.7484 54.6896 89.7415 54.9973 89.6796 55.3358C89.6191 55.6714 89.5007 56.0365 89.3244 56.4312L88.2725 58.7857ZM87.8829 57.5806L88.5053 56.1874C88.6975 55.7572 88.8076 55.4026 88.8357 55.1238C88.865 54.8419 88.839 54.5961 88.7575 54.3862C88.6429 54.0906 88.4374 53.8101 88.1412 53.5446C87.8433 53.2748 87.4464 53.0307 86.9504 52.8122C86.2632 52.5094 85.6854 52.3898 85.2172 52.4533C84.7473 52.5126 84.378 52.6749 84.1093 52.94C83.9163 53.132 83.7051 53.4846 83.4758 53.998L82.8633 55.3688L87.8829 57.5806Z" fill="white" fill-opacity="0.8"/>
<path d="M91.1926 51.8354L84.2056 50.1595L85.4258 45.1423L86.2503 45.3401L85.2534 49.439L87.3934 49.9523L88.327 46.1137L89.1467 46.3103L88.2131 50.1489L90.5914 50.7194L91.6274 46.4595L92.452 46.6573L91.1926 51.8354Z" fill="white" fill-opacity="0.8"/>
<path d="M92.8058 45.9201L85.7005 42.9737L85.7301 41.9564L93 39.2422L92.9687 40.3178L90.7684 41.0877L90.6817 44.0714L92.8349 44.9174L92.8058 45.9201ZM89.9152 43.7766L89.9856 41.3575L87.9741 42.0452C87.363 42.255 86.8615 42.4094 86.4694 42.5086C86.9275 42.6127 87.3812 42.754 87.8306 42.9325L89.9152 43.7766Z" fill="white" fill-opacity="0.8"/>
<path d="M15.6635 44.6833C19.0432 44.7795 17.4018 46.2178 16.2429 46.3134C14.6983 46.5055 10.5465 47.4643 8.71197 48.4232C5.52571 49.9574 1.33529 51.8943 2.33944 55.0395C3.3436 58.1846 9.58095 58.3955 12.5741 58.1079C17.4983 58.1079 26.9283 55.6775 31.6917 53.2176C34.1055 51.9711 40.4781 48.615 43.4712 44.6833C46.1747 41.1322 45.1126 40.1447 44.1471 39.6974C43.2974 38.6235 34.878 37.9715 30.8227 37.3003C27.8592 36.8098 22.3646 36.6482 19.4294 33.6565C16.4942 30.6648 19.4938 26.0175 21.3605 24.0678C24.2957 20.6158 37.4849 14.2871 48.1058 12.2735C48.9748 12.1777 56.0232 10.0682 62.0095 11.5064C66.8565 12.6709 65.0348 17.1957 63.5543 19.1774C62.6274 21.0952 55.1542 27.4238 49.9403 28.6703C48.1702 28.926 44.7457 28.7854 45.2092 26.1772C45.6726 23.5691 50.938 20.9993 53.5128 20.0404C54.6714 19.561 55.1542 20.3281 54.768 20.5199C53.5128 21.1431 50.1012 23.0769 48.2023 24.4512C47.7839 24.7709 47.1789 25.4676 48.1058 25.6978C49.2644 25.9854 55.8301 23.3965 60.7543 19.1774C64.6937 15.8022 62.0739 14.5108 60.2715 14.2871C49.5348 12.9063 30.2434 20.328 22.2295 26.3689C17.9811 29.9168 21.6501 32.0263 24.1605 32.6016C29.2779 34.1358 39.0298 33.5605 43.7609 36.0536C48.7044 38.5083 47.5265 43.8204 45.7883 45.8341C40.864 53.601 25.995 62.2309 10.2565 61.5596C-0.241353 61.1119 -0.686181 55.9023 0.408091 52.9298C1.02603 49.5545 10.7393 44.6833 15.6635 44.6833Z" fill="white" fill-opacity="0.8"/>
<path d="M52.5473 0.7671C72.8186 0.7671 89.4147 16.3941 90.7872 36.1794L91.5601 36.1597C90.1765 15.9597 73.2386 0 52.5473 0C41.3224 0 31.2022 4.69685 24.0707 12.2195L24.5846 12.7966C31.5778 5.39255 41.5186 0.7671 52.5473 0.7671Z" fill="white" fill-opacity="0.8"/>
<path d="M24.3761 64.6498L23.7133 65.0674C27.1266 68.7655 31.2517 71.805 35.8732 73.9717L36.2181 73.2849C31.7236 71.1802 27.7076 68.2336 24.3761 64.6498Z" fill="white" fill-opacity="0.8"/>
</svg>
