<svg width="56" height="56" viewBox="0 0 56 56" fill="none" xmlns="http://www.w3.org/2000/svg">
<path d="M4.33334 30.7583C3.67223 30.7583 3.11845 30.5351 2.67201 30.0887C2.22556 29.6422 2.00156 29.0877 2.00001 28.425C1.99845 27.7623 2.22245 27.2086 2.67201 26.7637C3.12156 26.3188 3.67534 26.0948 4.33334 26.0917H12.5C13.1611 26.0917 13.7157 26.3157 14.1637 26.7637C14.6117 27.2117 14.8349 27.7654 14.8333 28.425C14.8318 29.0846 14.6078 29.6391 14.1613 30.0887C13.7149 30.5382 13.1611 30.7614 12.5 30.7583H4.33334ZM16.5833 46.3333C14.6389 46.3333 12.9861 45.6528 11.625 44.2917C10.2639 42.9306 9.58334 41.2778 9.58334 39.3333H6.66667C5.8889 39.3333 5.26667 39.0417 4.80001 38.4583C4.33334 37.875 4.19723 37.2139 4.39167 36.475L4.91667 34.2583H12.2083C13.8417 34.2583 15.2222 33.6944 16.35 32.5667C17.4778 31.4389 18.0417 30.0583 18.0417 28.425C18.0417 27.9194 17.9833 27.4528 17.8667 27.025C17.75 26.5972 17.5945 26.1694 17.4 25.7417H19.6167C21.25 25.7417 22.6306 25.1778 23.7583 24.05C24.8861 22.9222 25.45 21.5417 25.45 19.9083C25.45 18.275 24.8861 16.8944 23.7583 15.7667C22.6306 14.6389 21.25 14.075 19.6167 14.075H10.75L11.1 12.675C11.3333 11.5861 11.8685 10.7018 12.7053 10.022C13.5422 9.34222 14.5238 9.00156 15.65 9H39.3333C40.1111 9 40.7333 9.29167 41.2 9.875C41.6667 10.4583 41.8028 11.1194 41.6083 11.8583L40.0917 18.3333H44.5833C45.3222 18.3333 46.0222 18.499 46.6833 18.8303C47.3445 19.1617 47.8889 19.6182 48.3167 20.2L52.6917 25.975C53.1195 26.5194 53.3917 27.1129 53.5083 27.7553C53.625 28.3978 53.625 29.0488 53.5083 29.7083L51.9333 37.4667C51.8167 38.0111 51.5444 38.4583 51.1167 38.8083C50.6889 39.1583 50.2028 39.3333 49.6583 39.3333H46.9167C46.9167 41.2778 46.2361 42.9306 44.875 44.2917C43.5139 45.6528 41.8611 46.3333 39.9167 46.3333C37.9722 46.3333 36.3195 45.6528 34.9583 44.2917C33.5972 42.9306 32.9167 41.2778 32.9167 39.3333H23.5833C23.5833 41.2778 22.9028 42.9306 21.5417 44.2917C20.1806 45.6528 18.5278 46.3333 16.5833 46.3333ZM9.00001 22.2417C8.3389 22.2417 7.78512 22.0177 7.33867 21.5697C6.89223 21.1217 6.66823 20.5679 6.66667 19.9083C6.66512 19.2488 6.88912 18.695 7.33867 18.247C7.78823 17.799 8.34201 17.575 9.00001 17.575H19.5C20.1611 17.575 20.7157 17.799 21.1637 18.247C21.6117 18.695 21.8349 19.2488 21.8333 19.9083C21.8318 20.5679 21.6078 21.1224 21.1613 21.572C20.7149 22.0216 20.1611 22.2448 19.5 22.2417H9.00001ZM16.5833 41.6667C17.2445 41.6667 17.799 41.4427 18.247 40.9947C18.695 40.5467 18.9182 39.9929 18.9167 39.3333C18.9151 38.6738 18.6911 38.12 18.2447 37.672C17.7982 37.224 17.2445 37 16.5833 37C15.9222 37 15.3685 37.224 14.922 37.672C14.4756 38.12 14.2516 38.6738 14.25 39.3333C14.2485 39.9929 14.4725 40.5474 14.922 40.997C15.3716 41.4466 15.9253 41.6698 16.5833 41.6667ZM39.9167 41.6667C40.5778 41.6667 41.1323 41.4427 41.5803 40.9947C42.0283 40.5467 42.2516 39.9929 42.25 39.3333C42.2485 38.6738 42.0245 38.12 41.578 37.672C41.1316 37.224 40.5778 37 39.9167 37C39.2556 37 38.7018 37.224 38.2553 37.672C37.8089 38.12 37.5849 38.6738 37.5833 39.3333C37.5818 39.9929 37.8058 40.5474 38.2553 40.997C38.7049 41.4466 39.2587 41.6698 39.9167 41.6667ZM37.4083 30H48.6667L48.9 28.775L44.5833 23H39.0417L37.4083 30Z" fill="#484848" fill-opacity="0.9"/>
</svg>
