<svg width="56" height="56" viewBox="0 0 56 56" fill="none" xmlns="http://www.w3.org/2000/svg">
<path d="M25.0667 32.5333L20.05 27.5167C19.6222 27.0889 19.0778 26.875 18.4167 26.875C17.7556 26.875 17.2111 27.0889 16.7833 27.5167C16.3556 27.9444 16.1417 28.4889 16.1417 29.15C16.1417 29.8111 16.3556 30.3556 16.7833 30.7833L23.4333 37.4333C23.9 37.9 24.4444 38.1333 25.0667 38.1333C25.6889 38.1333 26.2333 37.9 26.7 37.4333L39.8833 24.25C40.3111 23.8222 40.525 23.2778 40.525 22.6167C40.525 21.9556 40.3111 21.4111 39.8833 20.9833C39.4556 20.5556 38.9111 20.3417 38.25 20.3417C37.5889 20.3417 37.0444 20.5556 36.6167 20.9833L25.0667 32.5333ZM28.3333 51.6667C25.1056 51.6667 22.0722 51.0538 19.2333 49.828C16.3944 48.6022 13.925 46.9401 11.825 44.8417C9.725 42.7432 8.06289 40.2738 6.83867 37.4333C5.61445 34.5929 5.00156 31.5596 5 28.3333C4.99845 25.1071 5.61134 22.0738 6.83867 19.2333C8.066 16.3929 9.72811 13.9234 11.825 11.825C13.9219 9.72656 16.3913 8.06444 19.2333 6.83867C22.0753 5.61289 25.1087 5 28.3333 5C31.558 5 34.5913 5.61289 37.4333 6.83867C40.2753 8.06444 42.7448 9.72656 44.8417 11.825C46.9386 13.9234 48.6014 16.3929 49.8303 19.2333C51.0592 22.0738 51.6713 25.1071 51.6667 28.3333C51.662 31.5596 51.0491 34.5929 49.828 37.4333C48.6069 40.2738 46.9448 42.7432 44.8417 44.8417C42.7386 46.9401 40.2691 48.603 37.4333 49.8303C34.5976 51.0577 31.5642 51.6698 28.3333 51.6667Z" fill="#484848" fill-opacity="0.8"/>
</svg>
