<svg width="50" height="30" viewBox="0 0 50 30" fill="none" xmlns="http://www.w3.org/2000/svg">
<path d="M30.2765 14.4305C29.3622 14.0759 29.3622 12.7215 29.3056 11.7783C29.077 8.41882 30.2198 3.28995 28.8484 1.10938C27.8775 -0.188396 23.1909 -0.0695588 20.3347 0.107754C19.5338 0.226591 18.5628 0.402019 17.8771 0.756645C17.1914 1.11127 16.5057 1.6998 16.5057 2.22985C16.5057 2.99569 18.2209 2.87874 18.8481 3.88037C19.5338 4.94236 19.5338 7.23988 19.5338 9.12619C19.5338 11.3068 19.19 14.1966 18.3343 14.3135C17.0195 14.372 16.2771 13.0157 15.5914 12.0141C14.22 10.0693 12.8486 7.65109 11.8191 5.29321C11.3053 4.05579 11.0182 2.69954 10.2759 2.16949C9.13301 1.34329 7.07589 1.28481 5.07546 1.34329C3.24691 1.40176 0.617458 1.16597 0.103636 2.28644C-0.296816 3.52386 0.560773 4.7028 1.01791 5.70631C3.36028 10.9521 5.87454 15.5509 8.96113 19.9121C11.8191 23.979 14.5035 27.2215 19.7605 28.9305C21.2471 29.4021 27.7604 30.7584 29.0752 28.9305C29.5323 28.2232 29.4189 26.6311 29.6475 25.4522C29.8761 24.2732 30.1613 23.0943 31.2475 23.0358C32.1617 22.9773 32.6756 23.8017 33.2479 24.3921C33.8769 25.041 34.3908 25.571 34.8479 26.1614C35.934 27.2819 37.0769 28.8136 38.4483 29.404C40.3335 30.2302 43.2482 29.9944 45.9911 29.8756C48.2201 29.8171 49.82 29.3455 49.9919 27.9893C50.1071 26.9273 48.9625 25.3956 48.2767 24.5109C46.5616 22.3303 45.7625 21.6814 43.8187 19.6763C42.9612 18.7916 41.875 17.8485 41.875 16.7884C41.8183 16.1395 42.3321 15.5509 42.7893 14.9021C44.7897 11.8368 46.7901 9.65624 48.6187 6.47215C49.1325 5.529 50.3339 3.34843 49.8767 2.28644C49.3629 1.1075 46.5049 1.46024 44.733 1.46024C42.4473 1.46024 39.4759 1.28292 38.9036 1.7545C37.8175 2.52034 37.3603 3.75964 36.8465 4.93859C35.7036 7.6511 34.1604 10.4202 32.5604 12.4838C31.988 13.1912 30.9037 14.6644 30.2747 14.4286L30.2765 14.4305Z" fill="white" fill-opacity="0.9"/>
</svg>
