<svg width="30" height="30" viewBox="0 0 30 30" fill="none" xmlns="http://www.w3.org/2000/svg">
<path d="M16.9092 0C21.491 0 23.7822 3.19055e-05 25.5322 0.891602C27.0718 1.67601 28.324 2.92827 29.1084 4.46777C30 6.21788 30 8.50903 30 13.0908V16.9092C30 21.491 30.0001 23.7822 29.1084 25.5322C28.324 27.0718 27.0718 28.3231 25.5322 29.1074C23.7822 29.9992 21.4912 30 16.9092 30H13.0908C8.50878 30 6.21793 29.9991 4.46777 29.1074C2.92826 28.3231 1.67602 27.0718 0.891602 25.5322C-7.86734e-05 23.7822 3.65359e-10 21.4911 0 16.9092V13.0908C0 8.50901 6.09853e-05 6.21788 0.891602 4.46777C1.67602 2.92827 2.92826 1.67601 4.46777 0.891602C6.2179 5.45376e-05 8.50898 0 13.0908 0H16.9092ZM15 6.81934C10.4813 6.81934 6.81743 10.4824 6.81738 15.001C6.81738 19.5196 10.4813 23.1826 15 23.1826C19.5185 23.1824 23.1816 19.5195 23.1816 15.001C23.1816 10.4825 19.5185 6.81954 15 6.81934ZM15 9.54688C18.0122 9.54708 20.4541 11.9887 20.4541 15.001C20.4541 18.0132 18.0122 20.4549 15 20.4551C11.9875 20.4551 9.54492 18.0134 9.54492 15.001C9.54497 11.9886 11.9876 9.54688 15 9.54688ZM23.1816 5.45508C22.4286 5.45508 21.8176 6.06541 21.8174 6.81836C21.8174 7.57146 22.4285 8.18262 23.1816 8.18262C23.9347 8.18251 24.5449 7.57139 24.5449 6.81836C24.5447 6.06548 23.9346 5.45519 23.1816 5.45508Z" fill="white" fill-opacity="0.9"/>
</svg>
