<svg width="34" height="30" viewBox="0 0 34 30" fill="none" xmlns="http://www.w3.org/2000/svg">
<path d="M31.1014 0.264849C31.1014 0.264849 34.2466 -1.03372 33.9845 2.11995C33.8971 3.41854 33.1108 7.96354 32.4992 12.8796L30.4024 27.4422C30.4024 27.4422 30.2277 29.5755 28.6551 29.9466C27.0824 30.3175 24.7235 28.648 24.2866 28.277C23.9371 27.9987 17.7341 23.8247 15.5498 21.7841C14.9382 21.2276 14.2393 20.1145 15.6372 18.8159L24.8109 9.54042C25.8593 8.42734 26.9077 5.8302 22.5393 8.98388L10.3078 17.7956C10.3078 17.7956 8.90987 18.7232 6.28887 17.8884L0.609913 16.0333C0.609913 16.0333 -1.48693 14.642 2.09517 13.2506C10.832 8.89105 21.5783 4.4388 31.1014 0.264849Z" fill="white" fill-opacity="0.9"/>
</svg>
