<svg width="96" height="96" viewBox="0 0 96 96" fill="none" xmlns="http://www.w3.org/2000/svg">
<path d="M32 64V69C32 69.8667 32.284 70.584 32.852 71.152C33.42 71.72 34.136 72.0027 35 72C35.864 71.9973 36.5813 71.7133 37.152 71.148C37.7227 70.5827 38.0053 69.8667 38 69V64H43C43.8667 64 44.584 63.716 45.152 63.148C45.72 62.58 46.0027 61.864 46 61C45.9973 60.136 45.7133 59.42 45.148 58.852C44.5827 58.284 43.8667 58 43 58H38V53C38 52.1333 37.716 51.4173 37.148 50.852C36.58 50.2867 35.864 50.0027 35 50C34.136 49.9973 33.42 50.2813 32.852 50.852C32.284 51.4227 32 52.1387 32 53V58H27C26.1333 58 25.4173 58.284 24.852 58.852C24.2867 59.42 24.0027 60.136 24 61C23.9973 61.864 24.2813 62.5813 24.852 63.152C25.4227 63.7227 26.1387 64.0053 27 64H32ZM55 69H69C69.8667 69 70.584 68.716 71.152 68.148C71.72 67.58 72.0027 66.864 72 66C71.9973 65.136 71.7133 64.42 71.148 63.852C70.5827 63.284 69.8667 63 69 63H55C54.1333 63 53.4173 63.284 52.852 63.852C52.2867 64.42 52.0027 65.136 52 66C51.9973 66.864 52.2813 67.5813 52.852 68.152C53.4227 68.7227 54.1387 69.0053 55 69ZM55 59H69C69.8667 59 70.584 58.716 71.152 58.148C71.72 57.58 72.0027 56.864 72 56C71.9973 55.136 71.7133 54.42 71.148 53.852C70.5827 53.284 69.8667 53 69 53H55C54.1333 53 53.4173 53.284 52.852 53.852C52.2867 54.42 52.0027 55.136 52 56C51.9973 56.864 52.2813 57.5813 52.852 58.152C53.4227 58.7227 54.1387 59.0053 55 59ZM28 36.8H42C42.8667 36.8 43.584 36.5173 44.152 35.952C44.72 35.3867 45.0027 34.6693 45 33.8C44.9973 32.9307 44.7133 32.2147 44.148 31.652C43.5827 31.0893 42.8667 30.8053 42 30.8H28C27.1333 30.8 26.4173 31.084 25.852 31.652C25.2867 32.22 25.0027 32.936 25 33.8C24.9973 34.664 25.2813 35.3813 25.852 35.952C26.4227 36.5227 27.1387 36.8053 28 36.8ZM20 84C17.8 84 15.9173 83.2173 14.352 81.652C12.7867 80.0867 12.0027 78.2027 12 76V20C12 17.8 12.784 15.9173 14.352 14.352C15.92 12.7867 17.8027 12.0027 20 12H76C78.2 12 80.084 12.784 81.652 14.352C83.22 15.92 84.0027 17.8027 84 20V76C84 78.2 83.2173 80.084 81.652 81.652C80.0867 83.22 78.2027 84.0027 76 84H20ZM62 38.2L65.5 41.7C66.1 42.3 66.8 42.6 67.6 42.6C68.4 42.6 69.1 42.3 69.7 41.7C70.2333 41.1667 70.516 40.4827 70.548 39.648C70.58 38.8133 70.3307 38.0973 69.8 37.5L66.2 33.8L69.7 30.3C70.3 29.7 70.6 29 70.6 28.2C70.6 27.4 70.3 26.7 69.7 26.1C69.1 25.5 68.4 25.2 67.6 25.2C66.8 25.2 66.1 25.5 65.5 26.1L62 29.6L58.5 26.1C57.9 25.5 57.2 25.2 56.4 25.2C55.6 25.2 54.9 25.5 54.3 26.1C53.7 26.7 53.4 27.4 53.4 28.2C53.4 29 53.7 29.7 54.3 30.3L57.8 33.8L54.2 37.5C53.6667 38.1 53.4 38.8 53.4 39.6C53.4 40.4 53.7 41.1 54.3 41.7C54.9 42.3 55.6 42.6 56.4 42.6C57.2 42.6 57.9 42.3 58.5 41.7L62 38.2Z" fill="white"/>
</svg>
