<svg width="344" height="198" viewBox="0 0 344 198" fill="none" xmlns="http://www.w3.org/2000/svg">
<path d="M82.2045 198C66.4943 198 52.4282 194.171 40.0062 186.514C27.5842 178.674 17.811 167.37 10.6866 152.602C3.56219 137.834 0 119.967 0 99C0 78.0331 3.56219 60.1657 10.6866 45.3978C17.811 30.6298 27.5842 19.4171 40.0062 11.7597C52.4282 3.91989 66.4943 0 82.2045 0C98.0973 0 112.163 3.91989 124.403 11.7597C136.825 19.4171 146.598 30.6298 153.722 45.3978C160.847 60.1657 164.409 78.0331 164.409 99C164.409 119.967 160.847 137.834 153.722 152.602C146.598 167.37 136.825 178.674 124.403 186.514C112.163 194.171 98.0973 198 82.2045 198ZM82.2045 160.533C89.6942 160.533 96.1792 158.436 101.66 154.243C107.323 150.05 111.707 143.395 114.812 134.279C118.1 125.163 119.745 113.403 119.745 99C119.745 84.5967 118.1 72.837 114.812 63.721C111.707 54.605 107.323 47.9503 101.66 43.7569C96.1792 39.5635 89.6942 37.4668 82.2045 37.4668C74.8974 37.4668 68.4124 39.5635 62.7494 43.7569C57.2691 47.9503 52.8849 54.605 49.5967 63.721C46.4912 72.837 44.9384 84.5967 44.9384 99C44.9384 113.403 46.4912 125.163 49.5967 134.279C52.8849 143.395 57.2691 150.05 62.7494 154.243C68.4124 158.436 74.8974 160.533 82.2045 160.533Z" fill="white" fill-opacity="0.05"/>
<path d="M214.5 194.718V19.6906L233.681 38.8342H176.138V3.28176H258.891V194.718H214.5Z" fill="white" fill-opacity="0.05"/>
<path d="M317.421 196.906C310.114 196.906 303.811 194.445 298.514 189.522C293.399 184.417 290.841 177.945 290.841 170.105C290.841 162.265 293.399 155.975 298.514 151.235C303.811 146.312 310.114 143.851 317.421 143.851C324.91 143.851 331.213 146.312 336.328 151.235C341.443 155.975 344 162.265 344 170.105C344 177.945 341.443 184.417 336.328 189.522C331.213 194.445 324.91 196.906 317.421 196.906Z" fill="white" fill-opacity="0.05"/>
</svg>
