<svg width="400" height="198" viewBox="0 0 400 198" fill="none" xmlns="http://www.w3.org/2000/svg">
<path d="M82.0548 198C66.3732 198 52.3327 194.171 39.9333 186.514C27.5339 178.674 17.7785 167.37 10.6671 152.602C3.55571 137.834 0 119.967 0 99C0 78.0331 3.55571 60.1657 10.6671 45.3978C17.7785 30.6298 27.5339 19.4171 39.9333 11.7597C52.3327 3.91989 66.3732 0 82.0548 0C97.9187 0 111.959 3.91989 124.176 11.7597C136.576 19.4171 146.331 30.6298 153.442 45.3978C160.554 60.1657 164.11 78.0331 164.11 99C164.11 119.967 160.554 137.834 153.442 152.602C146.331 167.37 136.576 178.674 124.176 186.514C111.959 194.171 97.9187 198 82.0548 198ZM82.0548 160.533C89.5309 160.533 96.0041 158.436 101.474 154.243C107.127 150.05 111.503 143.395 114.603 134.279C117.885 125.163 119.526 113.403 119.526 99C119.526 84.5967 117.885 72.837 114.603 63.721C111.503 54.605 107.127 47.9503 101.474 43.7569C96.0041 39.5635 89.5309 37.4668 82.0548 37.4668C74.761 37.4668 68.2878 39.5635 62.6352 43.7569C57.1648 47.9503 52.7886 54.605 49.5064 63.721C46.4065 72.837 44.8566 84.5967 44.8566 99C44.8566 113.403 46.4065 125.163 49.5064 134.279C52.7886 143.395 57.1648 150.05 62.6352 154.243C68.2878 158.436 74.761 160.533 82.0548 160.533Z" fill="white" fill-opacity="0.05"/>
<path d="M250.735 198C237.424 198 224.204 196.268 211.075 192.804C198.129 189.157 187.006 184.052 177.706 177.489L195.211 143.577C202.505 148.865 210.893 153.058 220.375 156.157C230.039 159.257 239.794 160.807 249.641 160.807C260.764 160.807 269.516 158.619 275.899 154.243C282.281 149.867 285.472 143.76 285.472 135.92C285.472 130.997 284.195 126.622 281.642 122.793C279.09 118.964 274.531 116.047 267.967 114.041C261.585 112.036 252.559 111.033 240.888 111.033H191.929L201.776 3.28176H318.567V38.8342H217.64L240.615 18.5967L233.777 95.4447L210.802 75.2072H251.282C270.246 75.2072 285.472 77.8508 296.959 83.1381C308.629 88.2431 317.108 95.2624 322.396 104.196C327.684 113.13 330.328 123.249 330.328 134.552C330.328 145.856 327.502 156.34 321.849 166.003C316.197 175.483 307.444 183.232 295.592 189.249C283.922 195.083 268.969 198 250.735 198Z" fill="white" fill-opacity="0.05"/>
<path d="M373.469 196.906C366.175 196.906 359.884 194.445 354.596 189.522C349.491 184.417 346.938 177.945 346.938 170.105C346.938 162.265 349.491 155.975 354.596 151.235C359.884 146.312 366.175 143.851 373.469 143.851C380.945 143.851 387.236 146.312 392.342 151.235C397.447 155.975 400 162.265 400 170.105C400 177.945 397.447 184.417 392.342 189.522C387.236 194.445 380.945 196.906 373.469 196.906Z" fill="white" fill-opacity="0.05"/>
</svg>
