<svg width="96" height="96" viewBox="0 0 96 96" fill="none" xmlns="http://www.w3.org/2000/svg">
<path d="M7.00001 53.3C5.86668 53.3 4.91735 52.9173 4.15201 52.152C3.38668 51.3867 3.00268 50.436 3.00001 49.3C2.99735 48.164 3.38135 47.2147 4.15201 46.452C4.92268 45.6893 5.87201 45.3053 7.00001 45.3H21C22.1333 45.3 23.084 45.684 23.852 46.452C24.62 47.22 25.0027 48.1693 25 49.3C24.9973 50.4307 24.6133 51.3813 23.848 52.152C23.0827 52.9227 22.1333 53.3053 21 53.3H7.00001ZM28 80C24.6667 80 21.8333 78.8333 19.5 76.5C17.1667 74.1667 16 71.3333 16 68H11C9.66668 68 8.60001 67.5 7.80001 66.5C7.00001 65.5 6.76668 64.3667 7.10001 63.1L8.00001 59.3H20.5C23.3 59.3 25.6667 58.3333 27.6 56.4C29.5333 54.4667 30.5 52.1 30.5 49.3C30.5 48.4333 30.4 47.6333 30.2 46.9C30 46.1667 29.7333 45.4333 29.4 44.7H33.2C36 44.7 38.3667 43.7333 40.3 41.8C42.2333 39.8667 43.2 37.5 43.2 34.7C43.2 31.9 42.2333 29.5333 40.3 27.6C38.3667 25.6667 36 24.7 33.2 24.7H18L18.6 22.3C19 20.4333 19.9173 18.9173 21.352 17.752C22.7867 16.5867 24.4693 16.0027 26.4 16H67C68.3334 16 69.4 16.5 70.2 17.5C71 18.5 71.2334 19.6333 70.9 20.9L68.3 32H76C77.2667 32 78.4667 32.284 79.6 32.852C80.7333 33.42 81.6667 34.2027 82.4 35.2L89.9 45.1C90.6333 46.0333 91.1 47.0507 91.3 48.152C91.5 49.2533 91.5 50.3693 91.3 51.5L88.6 64.8C88.4 65.7333 87.9333 66.5 87.2 67.1C86.4667 67.7 85.6333 68 84.7 68H80C80 71.3333 78.8334 74.1667 76.5 76.5C74.1667 78.8333 71.3334 80 68 80C64.6667 80 61.8333 78.8333 59.5 76.5C57.1667 74.1667 56 71.3333 56 68H40C40 71.3333 38.8333 74.1667 36.5 76.5C34.1667 78.8333 31.3333 80 28 80ZM15 38.7C13.8667 38.7 12.9173 38.316 12.152 37.548C11.3867 36.78 11.0027 35.8307 11 34.7C10.9973 33.5693 11.3813 32.62 12.152 31.852C12.9227 31.084 13.872 30.7 15 30.7H33C34.1333 30.7 35.084 31.084 35.852 31.852C36.62 32.62 37.0027 33.5693 37 34.7C36.9973 35.8307 36.6133 36.7813 35.848 37.552C35.0827 38.3227 34.1333 38.7053 33 38.7H15ZM28 72C29.1333 72 30.084 71.616 30.852 70.848C31.62 70.08 32.0027 69.1307 32 68C31.9973 66.8693 31.6133 65.92 30.848 65.152C30.0827 64.384 29.1333 64 28 64C26.8667 64 25.9173 64.384 25.152 65.152C24.3867 65.92 24.0027 66.8693 24 68C23.9973 69.1307 24.3813 70.0813 25.152 70.852C25.9227 71.6227 26.872 72.0053 28 72ZM68 72C69.1333 72 70.084 71.616 70.852 70.848C71.62 70.08 72.0027 69.1307 72 68C71.9973 66.8693 71.6133 65.92 70.848 65.152C70.0827 64.384 69.1333 64 68 64C66.8667 64 65.9174 64.384 65.152 65.152C64.3867 65.92 64.0027 66.8693 64 68C63.9973 69.1307 64.3813 70.0813 65.152 70.852C65.9227 71.6227 66.872 72.0053 68 72ZM63.7 52H83L83.4 49.9L76 40H66.5L63.7 52Z" fill="white"/>
</svg>
