<svg width="397" height="198" viewBox="0 0 397 198" fill="none" xmlns="http://www.w3.org/2000/svg">
<path d="M82.1525 198C66.4523 198 52.3951 194.171 39.9809 186.514C27.5667 178.674 17.7997 167.37 10.6798 152.602C3.55994 137.834 0 119.967 0 99C0 78.0331 3.55994 60.1657 10.6798 45.3978C17.7997 30.6298 27.5667 19.4171 39.9809 11.7597C52.3951 3.91989 66.4523 0 82.1525 0C98.0354 0 112.093 3.91989 124.324 11.7597C136.738 19.4171 146.505 30.6298 153.625 45.3978C160.745 60.1657 164.305 78.0331 164.305 99C164.305 119.967 160.745 137.834 153.625 152.602C146.505 167.37 136.738 178.674 124.324 186.514C112.093 194.171 98.0354 198 82.1525 198ZM82.1525 160.533C89.6375 160.533 96.1185 158.436 101.595 154.243C107.255 150.05 111.636 143.395 114.74 134.279C118.026 125.163 119.669 113.403 119.669 99C119.669 84.5967 118.026 72.837 114.74 63.721C111.636 54.605 107.255 47.9503 101.595 43.7569C96.1185 39.5635 89.6375 37.4668 82.1525 37.4668C74.8501 37.4668 68.3692 39.5635 62.7098 43.7569C57.2329 47.9503 52.8515 54.605 49.5654 63.721C46.4618 72.837 44.9101 84.5967 44.9101 99C44.9101 113.403 46.4618 125.163 49.5654 134.279C52.8515 143.395 57.2329 150.05 62.7098 154.243C68.3692 158.436 74.8501 160.533 82.1525 160.533Z" fill="white" fill-opacity="0.05"/>
<path d="M245.347 198C232.02 198 218.785 196.268 205.64 192.804C192.496 189.157 181.36 184.052 172.232 177.489L189.484 143.577C196.786 148.865 205.275 153.058 214.951 156.157C224.627 159.257 234.394 160.807 244.252 160.807C255.388 160.807 264.151 158.619 270.541 154.243C276.93 149.867 280.125 143.851 280.125 136.193C280.125 128.901 277.295 123.157 271.636 118.964C265.977 114.771 256.849 112.674 244.252 112.674H223.988V83.4116L277.387 22.9724L282.316 38.8342H181.816V3.28176H315.998V31.9972L262.873 92.4365L240.418 79.5829H253.289C276.839 79.5829 294.639 84.8702 306.688 95.4447C318.737 106.019 324.761 119.602 324.761 136.193C324.761 146.95 321.932 157.069 316.272 166.55C310.613 175.848 301.941 183.414 290.257 189.249C278.573 195.083 263.603 198 245.347 198Z" fill="white" fill-opacity="0.05"/>
<path d="M370.437 196.906C363.135 196.906 356.836 194.445 351.542 189.522C346.431 184.417 343.875 177.945 343.875 170.105C343.875 162.265 346.431 155.975 351.542 151.235C356.836 146.312 363.135 143.851 370.437 143.851C377.922 143.851 384.221 146.312 389.332 151.235C394.444 155.975 397 162.265 397 170.105C397 177.945 394.444 184.417 389.332 189.522C384.221 194.445 377.922 196.906 370.437 196.906Z" fill="white" fill-opacity="0.05"/>
</svg>
