<svg width="96" height="96" viewBox="0 0 96 96" fill="none" xmlns="http://www.w3.org/2000/svg">
<path d="M23.3003 80L24.9003 81.6C25.6337 82.3333 26.0003 83.2507 26.0003 84.352C26.0003 85.4533 25.6003 86.4027 24.8003 87.2C24.067 87.9333 23.1337 88.3 22.0003 88.3C20.867 88.3 19.9337 87.9333 19.2003 87.2L10.8003 78.8C10.4003 78.4 10.1163 77.9667 9.94835 77.5C9.78035 77.0333 9.69901 76.5333 9.70435 76C9.70968 75.4667 9.79368 74.9667 9.95635 74.5C10.119 74.0333 10.4017 73.6 10.8043 73.2L19.2043 64.8C19.9377 64.0667 20.855 63.7 21.9563 63.7C23.0577 63.7 24.007 64.0667 24.8043 64.8C25.6043 65.6 26.0043 66.5507 26.0043 67.652C26.0043 68.7533 25.6043 69.7027 24.8043 70.5L23.3003 72H72.7003L71.1003 70.4C70.367 69.6667 70.0003 68.7507 70.0003 67.652C70.0003 66.5533 70.4003 65.6027 71.2003 64.8C71.9337 64.0667 72.867 63.7 74.0004 63.7C75.1337 63.7 76.067 64.0667 76.8004 64.8L85.2003 73.2C85.6003 73.6 85.8844 74.0333 86.0524 74.5C86.2204 74.9667 86.303 75.4667 86.3004 76C86.2977 76.5333 86.215 77.0333 86.0524 77.5C85.8897 77.9667 85.6057 78.4 85.2003 78.8L76.8004 87.2C76.067 87.9333 75.151 88.3 74.0524 88.3C72.9537 88.3 72.003 87.9333 71.2003 87.2C70.4003 86.4 70.0003 85.4507 70.0003 84.352C70.0003 83.2533 70.4003 82.3027 71.2003 81.5L72.7003 80H23.3003ZM48.0003 44C51.3337 44 54.167 42.8333 56.5003 40.5C58.8337 38.1667 60.0003 35.3333 60.0003 32C60.0003 28.6667 58.8337 25.8333 56.5003 23.5C54.167 21.1667 51.3337 20 48.0003 20C44.667 20 41.8337 21.1667 39.5003 23.5C37.167 25.8333 36.0003 28.6667 36.0003 32C36.0003 35.3333 37.167 38.1667 39.5003 40.5C41.8337 42.8333 44.667 44 48.0003 44ZM20.0003 56C17.8003 56 15.9177 55.2173 14.3523 53.652C12.787 52.0867 12.003 50.2027 12.0003 48V16C12.0003 13.8 12.7843 11.9173 14.3523 10.352C15.9203 8.78667 17.803 8.00267 20.0003 8H76.0004C78.2003 8 80.0844 8.784 81.6524 10.352C83.2204 11.92 84.003 13.8027 84.0004 16V48C84.0004 50.2 83.2177 52.084 81.6524 53.652C80.087 55.22 78.203 56.0027 76.0004 56H20.0003ZM20.0003 48H28.0003C28.0003 45.8 27.2177 43.9173 25.6523 42.352C24.087 40.7867 22.203 40.0027 20.0003 40V48ZM68.0003 48H76.0004V40C73.8004 40 71.9177 40.784 70.3523 42.352C68.787 43.92 68.003 45.8027 68.0003 48ZM76.0004 24V16H68.0003C68.0003 18.2 68.7843 20.084 70.3523 21.652C71.9203 23.22 73.803 24.0027 76.0004 24ZM20.0003 24C22.2003 24 24.0843 23.2173 25.6523 21.652C27.2203 20.0867 28.003 18.2027 28.0003 16H20.0003V24Z" fill="white"/>
</svg>
