<svg width="432" height="198" viewBox="0 0 432 198" fill="none" xmlns="http://www.w3.org/2000/svg">
<path d="M82.1972 198C66.4884 198 52.4236 194.171 40.0027 186.514C27.5817 178.674 17.8094 167.37 10.6856 152.602C3.56188 137.834 0 119.967 0 99C0 78.0331 3.56188 60.1657 10.6856 45.3978C17.8094 30.6298 27.5817 19.4171 40.0027 11.7597C52.4236 3.91989 66.4884 0 82.1972 0C98.0887 0 112.154 3.91989 124.392 11.7597C136.813 19.4171 146.585 30.6298 153.709 45.3978C160.833 60.1657 164.394 78.0331 164.394 99C164.394 119.967 160.833 137.834 153.709 152.602C146.585 167.37 136.813 178.674 124.392 186.514C112.154 194.171 98.0887 198 82.1972 198ZM82.1972 160.533C89.6863 160.533 96.1708 158.436 101.651 154.243C107.313 150.05 111.697 143.395 114.802 134.279C118.09 125.163 119.734 113.403 119.734 99C119.734 84.5967 118.09 72.837 114.802 63.721C111.697 54.605 107.313 47.9503 101.651 43.7569C96.1708 39.5635 89.6863 37.4668 82.1972 37.4668C74.8908 37.4668 68.4064 39.5635 62.7439 43.7569C57.2641 47.9503 52.8802 54.605 49.5923 63.721C46.4871 72.837 44.9345 84.5967 44.9345 99C44.9345 113.403 46.4871 125.163 49.5923 134.279C52.8802 143.395 57.2641 150.05 62.7439 154.243C68.4064 158.436 74.8908 160.533 82.1972 160.533Z" fill="white" fill-opacity="0.05"/>
<path d="M183.769 154.517V124.707L274.186 3.28176H320.764L232.265 124.707L210.62 118.417H361.589V154.517H183.769ZM287.063 194.718V154.517L288.433 118.417V82.5912H330.354V194.718H287.063Z" fill="white" fill-opacity="0.05"/>
<path d="M405.423 196.906C398.116 196.906 391.815 194.445 386.517 189.522C381.403 184.417 378.846 177.945 378.846 170.105C378.846 162.265 381.403 155.975 386.517 151.235C391.815 146.312 398.116 143.851 405.423 143.851C412.912 143.851 419.214 146.312 424.328 151.235C429.443 155.975 432 162.265 432 170.105C432 177.945 429.443 184.417 424.328 189.522C419.214 194.445 412.912 196.906 405.423 196.906Z" fill="white" fill-opacity="0.05"/>
</svg>
