<svg width="96" height="96" viewBox="0 0 96 96" fill="none" xmlns="http://www.w3.org/2000/svg">
<path d="M60 64H72C73.1333 64 74.084 63.616 74.852 62.848C75.62 62.08 76.0027 61.1307 76 60V36C76 34.8667 75.616 33.9173 74.848 33.152C74.08 32.3867 73.1307 32.0027 72 32H60C58.8667 32 57.9173 32.384 57.152 33.152C56.3867 33.92 56.0027 34.8693 56 36V60C56 61.1333 56.384 62.084 57.152 62.852C57.92 63.62 58.8693 64.0027 60 64ZM64 56V40H68V56H64ZM36 64H48C49.1333 64 50.084 63.616 50.852 62.848C51.62 62.08 52.0027 61.1307 52 60V36C52 34.8667 51.616 33.9173 50.848 33.152C50.08 32.3867 49.1307 32.0027 48 32H36C34.8667 32 33.9173 32.384 33.152 33.152C32.3867 33.92 32.0027 34.8693 32 36V60C32 61.1333 32.384 62.084 33.152 62.852C33.92 63.62 34.8693 64.0027 36 64ZM40 56V40H44V56H40ZM28 60V36C28 34.8667 27.616 33.9173 26.848 33.152C26.08 32.3867 25.1307 32.0027 24 32C22.8693 31.9973 21.92 32.3813 21.152 33.152C20.384 33.9227 20 34.872 20 36V60C20 61.1333 20.384 62.084 21.152 62.852C21.92 63.62 22.8693 64.0027 24 64C25.1307 63.9973 26.0813 63.6133 26.852 62.848C27.6227 62.0827 28.0053 61.1333 28 60ZM8 72V24C8 21.8 8.784 19.9173 10.352 18.352C11.92 16.7867 13.8027 16.0027 16 16H80C82.2 16 84.084 16.784 85.652 18.352C87.22 19.92 88.0027 21.8027 88 24V72C88 74.2 87.2173 76.084 85.652 77.652C84.0867 79.22 82.2027 80.0027 80 80H16C13.8 80 11.9173 79.2173 10.352 77.652C8.78667 76.0867 8.00267 74.2027 8 72Z" fill="white"/>
</svg>
