<svg width="400" height="198" viewBox="0 0 400 198" fill="none" xmlns="http://www.w3.org/2000/svg">
<path d="M82 198C66.3289 198 52.2978 194.171 39.9067 186.514C27.5156 178.674 17.7667 167.37 10.66 152.602C3.55333 137.834 0 119.967 0 99C0 78.0331 3.55333 60.1657 10.66 45.3978C17.7667 30.6298 27.5156 19.4171 39.9067 11.7597C52.2978 3.91989 66.3289 0 82 0C97.8534 0 111.884 3.91989 124.093 11.7597C136.485 19.4171 146.233 30.6298 153.34 45.3978C160.447 60.1657 164 78.0331 164 99C164 119.967 160.447 137.834 153.34 152.602C146.233 167.37 136.485 178.674 124.093 186.514C111.884 194.171 97.8534 198 82 198ZM82 160.533C89.4711 160.533 95.94 158.436 101.407 154.243C107.056 150.05 111.429 143.395 114.527 134.279C117.807 125.163 119.447 113.403 119.447 99C119.447 84.5967 117.807 72.837 114.527 63.721C111.429 54.605 107.056 47.9503 101.407 43.7569C95.94 39.5635 89.4711 37.4668 82 37.4668C74.7111 37.4668 68.2423 39.5635 62.5934 43.7569C57.1267 47.9503 52.7534 54.605 49.4734 63.721C46.3756 72.837 44.8267 84.5967 44.8267 99C44.8267 113.403 46.3756 125.163 49.4734 134.279C52.7534 143.395 57.1267 150.05 62.5934 154.243C68.2423 158.436 74.7111 160.533 82 160.533Z" fill="white" fill-opacity="0.05"/>
<path d="M182.807 194.718V166.003L256.607 96.2652C262.438 90.9779 266.72 86.2376 269.453 82.0442C272.187 77.8508 274.009 74.0221 274.92 70.558C276.013 67.0939 276.56 63.9033 276.56 60.9862C276.56 53.3287 273.918 47.4945 268.633 43.4834C263.531 39.2901 255.969 37.1934 245.947 37.1934C237.929 37.1934 230.458 38.7431 223.533 41.8425C216.791 44.942 211.051 49.7735 206.313 56.337L174.06 35.5525C181.349 24.6133 191.553 15.953 204.673 9.57181C217.793 3.1906 232.918 0 250.047 0C264.26 0 276.651 2.37016 287.22 7.11049C297.971 11.6685 306.262 18.1409 312.093 26.5276C318.107 34.9144 321.113 44.942 321.113 56.6105C321.113 62.8094 320.293 69.0083 318.653 75.2072C317.196 81.2238 314.098 87.605 309.36 94.3508C304.805 101.097 298.062 108.663 289.133 117.05L227.907 174.754L219.433 158.619H327.4V194.718H182.807Z" fill="white" fill-opacity="0.05"/>
<path d="M373.487 196.906C366.198 196.906 359.911 194.445 354.627 189.522C349.524 184.417 346.973 177.945 346.973 170.105C346.973 162.265 349.524 155.975 354.627 151.235C359.911 146.312 366.198 143.851 373.487 143.851C380.958 143.851 387.244 146.312 392.347 151.235C397.449 155.975 400 162.265 400 170.105C400 177.945 397.449 184.417 392.347 189.522C387.244 194.445 380.958 196.906 373.487 196.906Z" fill="white" fill-opacity="0.05"/>
</svg>
