<svg width="96" height="96" viewBox="0 0 96 96" fill="none" xmlns="http://www.w3.org/2000/svg">
<path d="M48 34.5C49.1333 34.5 50.084 34.116 50.852 33.348C51.62 32.58 52.0027 31.6307 52 30.5C51.9973 29.3693 51.6133 28.42 50.848 27.652C50.0827 26.884 49.1333 26.5 48 26.5C46.8667 26.5 45.9173 26.884 45.152 27.652C44.3867 28.42 44.0027 29.3693 44 30.5C43.9973 31.6307 44.3813 32.5813 45.152 33.352C45.9227 34.1227 46.872 34.5053 48 34.5ZM48 66.5C49.1333 66.5 50.084 66.116 50.852 65.348C51.62 64.58 52.0027 63.6307 52 62.5V46.5C52 45.3667 51.616 44.4173 50.848 43.652C50.08 42.8867 49.1307 42.5027 48 42.5C46.8693 42.4973 45.92 42.8813 45.152 43.652C44.384 44.4227 44 45.372 44 46.5V62.5C44 63.6333 44.384 64.584 45.152 65.352C45.92 66.12 46.8693 66.5027 48 66.5ZM24 78.5L14.8 87.7C13.5333 88.9667 12.0827 89.2507 10.448 88.552C8.81334 87.8533 7.99734 86.6027 8.00001 84.8V22.5C8.00001 20.3 8.78401 18.4173 10.352 16.852C11.92 15.2867 13.8027 14.5027 16 14.5H80C82.2 14.5 84.084 15.284 85.652 16.852C87.22 18.42 88.0027 20.3027 88 22.5V70.5C88 72.7 87.2173 74.584 85.652 76.152C84.0867 77.72 82.2027 78.5027 80 78.5H24Z" fill="white"/>
</svg>
