<svg width="121" height="105" viewBox="0 0 121 105" fill="none" xmlns="http://www.w3.org/2000/svg">
<path d="M51.2894 99.5941L52.4508 99.7504C52.4024 100.22 52.4426 100.624 52.5715 100.963C52.7055 101.299 52.9595 101.605 53.3335 101.881C53.7085 102.153 54.1553 102.347 54.674 102.464C55.1346 102.567 55.5566 102.59 55.9401 102.532C56.3235 102.475 56.6269 102.346 56.8501 102.147C57.0784 101.946 57.2242 101.703 57.2875 101.421C57.3517 101.134 57.3246 100.866 57.2061 100.616C57.0885 100.363 56.8552 100.12 56.506 99.889C56.2826 99.7384 55.7741 99.4691 54.9805 99.0811C54.1879 98.689 53.6436 98.3657 53.3475 98.1114C52.963 97.7848 52.7005 97.4289 52.5602 97.0437C52.4249 96.6552 52.4043 96.251 52.4983 95.8311C52.6017 95.3697 52.8287 94.9688 53.1796 94.6284C53.5313 94.284 53.9815 94.0642 54.5302 93.9692C55.0789 93.8742 55.6603 93.8958 56.2744 94.0338C56.9508 94.1859 57.5216 94.4299 57.9868 94.7659C58.4571 95.0987 58.7838 95.5083 58.9669 95.9949C59.1499 96.4814 59.1918 96.9951 59.0924 97.5361L57.9151 97.3631C57.9823 96.7713 57.8684 96.2872 57.5735 95.9109C57.2827 95.5355 56.7867 95.269 56.0854 95.1113C55.355 94.9472 54.7915 94.9624 54.3949 95.1571C54.0033 95.3485 53.7652 95.6334 53.6805 96.0117C53.6069 96.3401 53.6646 96.6369 53.8537 96.9021C54.0386 97.1664 54.5956 97.5208 55.5246 97.9655C56.4587 98.4069 57.0898 98.7518 57.4177 99.0002C57.8939 99.3648 58.2162 99.7648 58.3846 100.2C58.554 100.631 58.5837 101.092 58.4738 101.582C58.3649 102.069 58.123 102.497 57.7481 102.867C57.3742 103.232 56.8988 103.477 56.3219 103.601C55.7501 103.721 55.1385 103.708 54.487 103.562C53.6612 103.376 52.9952 103.1 52.489 102.733C51.9869 102.366 51.6302 101.906 51.4186 101.352C51.2122 100.795 51.1691 100.209 51.2894 99.5941Z" fill="white"/>
<path d="M62.2643 104.646L62.7804 96.3989L59.7052 96.2057L59.7743 95.1023L67.1725 95.5669L67.1035 96.6703L64.0156 96.4764L63.4995 104.724L62.2643 104.646Z" fill="white"/>
<path d="M68.2326 105L67.8719 95.6379L74.629 95.3766L74.6715 96.4814L69.1512 96.6948L69.2616 99.5622L74.4314 99.3624L74.4737 100.461L69.3039 100.661L69.4267 103.847L75.1638 103.626L75.2064 104.73L68.2326 105Z" fill="white"/>
<path d="M77.4304 104.263L75.1158 95.1852L76.3149 94.8784L77.4627 99.38L80.8145 93.7268L82.4401 93.3109L79.5767 97.9617L84.9216 102.346L83.3393 102.751L78.9414 98.9818L77.8274 100.81L78.6295 103.956L77.4304 104.263Z" fill="white"/>
<path d="M86.1023 101.943L82.4835 93.3034L83.6247 92.8236L86.8165 100.443L91.0635 98.6579L91.4906 99.6774L86.1023 101.943Z" fill="white"/>
<path d="M90.5666 95.13C89.6396 93.8826 89.2489 92.6575 89.3943 91.4548C89.5372 90.2487 90.1374 89.2513 91.195 88.4626C91.8875 87.9461 92.6349 87.6462 93.4373 87.563C94.2397 87.4798 95.0068 87.6274 95.7387 88.0058C96.4714 88.3782 97.1171 88.9404 97.6759 89.6922C98.2422 90.4543 98.5953 91.2506 98.7353 92.0811C98.8753 92.9116 98.7794 93.6922 98.4476 94.423C98.1133 95.1504 97.6204 95.7571 96.9688 96.243C96.2627 96.7697 95.5046 97.0695 94.6946 97.1425C93.8846 97.2154 93.1166 97.0632 92.3907 96.6856C91.6648 96.3081 91.0567 95.7896 90.5666 95.13ZM91.6014 94.3821C92.2744 95.2877 93.0474 95.8214 93.9204 95.9829C94.7942 96.1386 95.5979 95.9429 96.3313 95.3959C97.0784 94.8387 97.4969 94.1176 97.5868 93.2325C97.6801 92.3449 97.3674 91.4175 96.6487 90.4504C96.1941 89.8386 95.6938 89.3831 95.148 89.0838C94.603 88.7785 94.0382 88.6499 93.4537 88.6981C92.87 88.7404 92.3309 88.9459 91.8363 89.3149C91.1335 89.839 90.7083 90.5332 90.5607 91.3976C90.4139 92.2561 90.7608 93.2509 91.6014 94.3821Z" fill="white"/>
<path d="M107.384 85.6219C107.436 86.1867 107.388 86.7057 107.241 87.1787C107.091 87.6489 106.84 88.0748 106.487 88.4564C105.838 89.1601 105.085 89.4986 104.229 89.4717C103.533 89.4477 102.946 89.2143 102.468 88.7717C102.044 88.3782 101.787 87.8878 101.698 87.3003C101.608 86.7068 101.685 86.0179 101.929 85.2335C101.287 85.2134 100.808 85.1522 100.491 85.05C100.174 84.9478 99.9121 84.8013 99.7061 84.6103C99.294 84.2285 99.0852 83.7361 99.0798 83.1333C99.0741 82.5245 99.298 81.9746 99.7514 81.4835C100.185 81.0143 100.682 80.7643 101.244 80.7333C101.808 80.6992 102.292 80.8687 102.694 81.2419C103.347 81.8466 103.504 82.7962 103.166 84.0907L105.874 84.3106C105.73 83.9152 105.512 83.5107 105.222 83.0969L106.22 82.3931C106.68 83.0987 106.986 83.7591 107.136 84.3743C107.846 84.4461 108.528 84.4134 109.182 84.2763L109.328 85.4646C108.794 85.603 108.146 85.6555 107.384 85.6219ZM102.22 84.0237C102.343 83.4581 102.372 83.0469 102.308 82.7901C102.246 82.5302 102.117 82.3092 101.921 82.1269C101.687 81.9099 101.427 81.8085 101.141 81.8227C100.856 81.8308 100.611 81.9459 100.406 82.168C100.195 82.3963 100.092 82.6551 100.097 82.9443C100.105 83.2304 100.216 83.4719 100.428 83.6686C100.534 83.767 100.671 83.8445 100.839 83.9013C101.006 83.952 101.206 83.9834 101.438 83.9954L102.22 84.0237ZM106.229 85.5359L102.884 85.3093C102.734 86.0176 102.703 86.5601 102.79 86.9366C102.873 87.3102 103.029 87.6026 103.257 87.8138C103.535 88.0712 103.926 88.2278 104.431 88.2835C104.936 88.3391 105.376 88.1636 105.751 87.757C105.985 87.5037 106.148 87.1702 106.241 86.7565C106.333 86.3369 106.329 85.93 106.229 85.5359Z" fill="white"/>
<path d="M113.001 80.3593L105.1 75.3458L105.762 74.2984L113.663 79.3119L113.001 80.3593Z" fill="white"/>
<path d="M114.849 77.1562L106.301 73.3565L107.607 70.4064C107.902 69.7405 108.168 69.2504 108.405 68.9361C108.735 68.4955 109.124 68.1676 109.573 67.9523C110.154 67.6699 110.792 67.5499 111.485 67.5922C112.176 67.629 112.902 67.8167 113.664 68.1554C114.313 68.4439 114.855 68.7756 115.289 69.1504C115.723 69.5252 116.053 69.9048 116.278 70.2892C116.5 70.672 116.642 71.0478 116.707 71.4168C116.769 71.7801 116.76 72.1839 116.68 72.6283C116.601 73.0687 116.447 73.5479 116.218 74.0659L114.849 77.1562ZM114.342 75.5745L115.152 73.746C115.402 73.1813 115.545 72.716 115.582 72.35C115.62 71.9801 115.586 71.6574 115.48 71.3819C115.331 70.9939 115.064 70.6257 114.678 70.2773C114.291 69.9232 113.774 69.6028 113.129 69.316C112.235 68.9185 111.483 68.7616 110.874 68.845C110.263 68.9228 109.782 69.1358 109.433 69.4838C109.181 69.7357 108.907 70.1986 108.608 70.8723L107.811 72.6716L114.342 75.5745Z" fill="white"/>
<path d="M118.648 68.034L109.558 65.8343L111.145 59.2492L112.218 59.5088L110.921 64.8887L113.705 65.5624L114.92 60.5242L115.987 60.7823L114.772 65.8205L117.866 66.5692L119.214 60.9782L120.287 61.2377L118.648 68.034Z" fill="white"/>
<path d="M120.747 60.2701L111.503 56.403L111.541 55.0678L121 51.5054L120.959 52.9172L118.097 53.9276L117.984 57.8437L120.785 58.9541L120.747 60.2701ZM116.986 57.4568L117.078 54.2818L114.461 55.1843C113.666 55.4596 113.013 55.6624 112.503 55.7925C113.099 55.9291 113.69 56.1146 114.274 56.3489L116.986 57.4568Z" fill="white"/>
<path d="M20.3794 58.6469C24.7766 58.7731 22.641 60.6609 21.1332 60.7864C19.1236 61.0384 13.7218 62.2969 11.3349 63.5555C7.18936 65.5691 1.73731 68.1113 3.04379 72.2393C4.35027 76.3672 12.4655 76.6441 16.3599 76.2666C22.7667 76.2666 35.0357 73.0767 41.2333 69.8481C44.3739 68.212 52.665 63.8072 56.5593 58.6469C60.0768 53.986 58.6949 52.69 57.4387 52.1029C56.3332 50.6934 45.3789 49.8376 40.1027 48.9566C36.247 48.3128 29.0981 48.1008 25.2791 44.1742C21.4602 40.2476 25.3629 34.148 27.7916 31.589C31.6105 27.0583 48.7707 18.7518 62.5893 16.109C63.7199 15.9833 72.8904 13.2145 80.679 15.1022C86.9853 16.6306 84.6152 22.5694 82.689 25.1704C81.483 27.6874 71.7598 35.9937 64.9761 37.6298C62.673 37.9654 58.2176 37.7808 58.8206 34.3576C59.4235 30.9344 66.2742 27.5616 69.6242 26.303C71.1316 25.6738 71.7598 26.6806 71.2573 26.9323C69.6242 27.7503 65.1855 30.2884 62.7149 32.0923C62.1705 32.5118 61.3833 33.4263 62.5893 33.7283C64.0967 34.1059 72.6391 30.7079 79.0459 25.1704C84.1713 20.7404 80.7628 19.0455 78.4178 18.7518C64.4485 16.9395 39.3489 26.6806 28.9222 34.6092C23.3948 39.2657 28.1685 42.0345 31.4347 42.7896C38.0927 44.8032 50.7807 44.0481 56.9362 47.3203C63.3681 50.5421 61.8355 57.5143 59.574 60.1572C53.1671 70.3513 33.8215 81.678 13.3445 80.797C-0.314019 80.2094 -0.892774 73.3717 0.530958 69.4703C1.33495 65.0403 13.9726 58.6469 20.3794 58.6469Z" fill="white"/>
<path d="M68.3679 1.00682C94.7424 1.00682 116.335 21.5173 118.121 47.4855L119.127 47.4596C117.326 20.9471 95.2889 0 68.3679 0C53.7636 0 40.5964 6.16462 31.3177 16.0381L31.9864 16.7955C41.0852 7.07772 54.0189 1.00682 68.3679 1.00682Z" fill="white"/>
<path d="M31.7151 84.8529L30.8528 85.4009C35.2937 90.2547 40.6609 94.244 46.6738 97.0878L47.1224 96.1864C41.2748 93.424 36.0496 89.5565 31.7151 84.8529Z" fill="white"/>
</svg>
